#N canvas 22 28 1280 699 10;
#X obj 253 347 dac~;
#X obj 181 347 writesf~ 2;
#X msg 141 257 start;
#X msg 181 256 stop;
#X obj 181 204 del 1000;
#X obj 141 111 bng 15 250 50 0 empty empty empty 17 7 0 10 -262144
-1 -1;
#X obj 141 233 del 100;
#X msg 59 257 open rec.wav;
#N canvas 33 349 1136 326 synths 0;
#X floatatom 56 107 5 0 0 0 - - -;
#N canvas 0 23 1280 738 additive_synth 0;
#X floatatom 580 238 5 0 0 0 - - -;
#X obj 392 441 *~;
#X obj 429 443 line~;
#X obj 391 404 osc~;
#X obj 492 450 *~;
#X obj 491 406 osc~;
#X obj 599 438 *~;
#X obj 598 401 osc~;
#X obj 717 450 *~;
#X obj 720 403 osc~;
#X obj 381 591 *~;
#X obj 380 554 osc~;
#X obj 509 602 *~;
#X obj 513 557 osc~;
#X obj 636 592 *~;
#X obj 635 555 osc~;
#X obj 770 593 *~;
#X obj 769 556 osc~;
#X obj 528 441 line~;
#X obj 643 440 line~;
#X obj 768 441 line~;
#X obj 427 587 line~;
#X obj 557 588 line~;
#X obj 681 592 line~;
#X obj 810 536 line~;
#X obj 391 375 * 1;
#X obj 491 373 * 2;
#X obj 598 366 * 3;
#X obj 720 369 * 4;
#X obj 380 512 * 5;
#X obj 513 526 * 6;
#X obj 635 511 * 7;
#X obj 769 515 * 8;
#X obj 621 238 bng 15 250 50 0 empty empty empty 17 7 0 10 -262144
-1 -1;
#X obj 580 160 inlet;
#X obj 621 209 inlet;
#X floatatom 580 189 5 0 0 0 - - -;
#X obj 580 211 mtof;
#X msg 429 403 0.5 \, 0 800;
#X obj 917 148 vsl 15 128 0 0.8 0 0 empty empty empty 0 -9 0 10 -262144
-1 -1 12700 1;
#X floatatom 917 286 5 0 0 0 - - -;
#X obj 392 477 *~;
#X obj 492 480 *~;
#X obj 599 478 *~;
#X obj 716 480 *~;
#X obj 389 633 *~;
#X obj 489 636 *~;
#X obj 596 634 *~;
#X obj 713 636 *~;
#X obj 959 149 vsl 15 128 0 0.8 0 0 empty empty empty 0 -9 0 10 -262144
-1 -1 7937 1;
#X floatatom 959 287 5 0 0 0 - - -;
#X obj 1000 150 vsl 15 128 0 0.8 0 0 empty empty empty 0 -9 0 10 -262144
-1 -1 3969 1;
#X floatatom 1000 288 5 0 0 0 - - -;
#X obj 1041 151 vsl 15 128 0 0.8 0 0 empty empty empty 0 -9 0 10 -262144
-1 -1 1984 1;
#X floatatom 1041 289 5 0 0 0 - - -;
#X obj 1078 151 vsl 15 128 0 0.8 0 0 empty empty empty 0 -9 0 10 -262144
-1 -1 992 1;
#X floatatom 1079 290 5 0 0 0 - - -;
#X obj 1117 152 vsl 15 128 0 0.8 0 0 empty empty empty 0 -9 0 10 -262144
-1 -1 496 1;
#X floatatom 1117 290 5 0 0 0 - - -;
#X obj 1156 152 vsl 15 128 0 0.8 0 0 empty empty empty 0 -9 0 10 -262144
-1 -1 248 1;
#X floatatom 1156 290 5 0 0 0 - - -;
#X obj 1193 153 vsl 15 128 0 0.8 0 0 empty empty empty 0 -9 0 10 -262144
-1 -1 124 1;
#X floatatom 1193 291 5 0 0 0 - - -;
#X obj 917 82 1;
#X obj 993 45 bng 15 250 50 0 empty empty empty 17 7 0 10 -262144 -1
-1;
#X obj 917 50 inlet;
#X obj 577 714 outlet~;
#X msg 527 401 0.5 \, 0 800;
#X msg 643 400 0.5 \, 0 800;
#X msg 768 402 0.5 \, 0 800;
#X msg 428 547 0.5 \, 0 800;
#X msg 557 548 0.5 \, 0 800;
#X msg 682 551 0.5 \, 0 800;
#X msg 810 507 0.5 \, 0 800;
#X obj 959 99 / 2;
#X obj 1000 99 / 2;
#X obj 1041 99 / 2;
#X obj 1078 99 / 2;
#X obj 1117 99 / 2;
#X obj 1156 99 / 2;
#X obj 1193 99 / 2;
#X text 308 241 Additive Synth;
#X connect 0 0 25 0;
#X connect 0 0 26 0;
#X connect 0 0 27 0;
#X connect 0 0 28 0;
#X connect 0 0 29 0;
#X connect 0 0 30 0;
#X connect 0 0 31 0;
#X connect 0 0 32 0;
#X connect 1 0 41 0;
#X connect 2 0 1 1;
#X connect 3 0 1 0;
#X connect 4 0 42 0;
#X connect 5 0 4 0;
#X connect 6 0 43 0;
#X connect 7 0 6 0;
#X connect 8 0 44 0;
#X connect 9 0 8 0;
#X connect 10 0 45 0;
#X connect 11 0 10 0;
#X connect 12 0 46 0;
#X connect 13 0 12 0;
#X connect 14 0 47 0;
#X connect 15 0 14 0;
#X connect 16 0 48 0;
#X connect 17 0 16 0;
#X connect 18 0 4 1;
#X connect 19 0 6 1;
#X connect 20 0 8 1;
#X connect 21 0 10 1;
#X connect 22 0 12 1;
#X connect 23 0 14 1;
#X connect 24 0 16 1;
#X connect 25 0 3 0;
#X connect 26 0 5 0;
#X connect 27 0 7 0;
#X connect 28 0 9 0;
#X connect 29 0 11 0;
#X connect 30 0 13 0;
#X connect 31 0 15 0;
#X connect 32 0 17 0;
#X connect 33 0 38 0;
#X connect 33 0 67 0;
#X connect 33 0 68 0;
#X connect 33 0 69 0;
#X connect 33 0 70 0;
#X connect 33 0 71 0;
#X connect 33 0 72 0;
#X connect 33 0 73 0;
#X connect 34 0 36 0;
#X connect 35 0 33 0;
#X connect 36 0 37 0;
#X connect 37 0 0 0;
#X connect 38 0 2 0;
#X connect 39 0 40 0;
#X connect 40 0 41 1;
#X connect 41 0 66 0;
#X connect 42 0 66 0;
#X connect 43 0 66 0;
#X connect 44 0 66 0;
#X connect 45 0 66 0;
#X connect 46 0 66 0;
#X connect 47 0 66 0;
#X connect 48 0 66 0;
#X connect 49 0 50 0;
#X connect 50 0 42 1;
#X connect 51 0 52 0;
#X connect 52 0 43 1;
#X connect 53 0 54 0;
#X connect 54 0 44 1;
#X connect 55 0 56 0;
#X connect 56 0 45 1;
#X connect 57 0 58 0;
#X connect 58 0 46 1;
#X connect 59 0 60 0;
#X connect 60 0 47 1;
#X connect 61 0 62 0;
#X connect 62 0 48 1;
#X connect 63 0 39 0;
#X connect 63 0 74 0;
#X connect 64 0 63 0;
#X connect 65 0 63 0;
#X connect 67 0 18 0;
#X connect 68 0 19 0;
#X connect 69 0 20 0;
#X connect 70 0 21 0;
#X connect 71 0 22 0;
#X connect 72 0 23 0;
#X connect 73 0 24 0;
#X connect 74 0 49 0;
#X connect 74 0 75 0;
#X connect 75 0 51 0;
#X connect 75 0 76 0;
#X connect 76 0 53 0;
#X connect 76 0 77 0;
#X connect 77 0 55 0;
#X connect 77 0 78 0;
#X connect 78 0 57 0;
#X connect 78 0 79 0;
#X connect 79 0 59 0;
#X connect 79 0 80 0;
#X connect 80 0 61 0;
#X restore 56 131 pd additive_synth;
#X obj 566 -37 loadbang;
#X floatatom 174 106 5 0 0 0 - - -;
#X obj 223 106 bng 15 250 50 0 empty empty empty 17 7 0 10 -262144
-1 -1;
#X obj 56 71 r voice0;
#X obj 174 70 r voice1;
#X floatatom 291 108 5 0 0 0 - - -;
#X obj 340 108 bng 15 250 50 0 empty empty empty 17 7 0 10 -262144
-1 -1;
#X obj 291 72 r voice2;
#N canvas 0 23 1280 699 additive_synth 0;
#X floatatom 580 238 5 0 0 0 - - -;
#X obj 392 441 *~;
#X obj 429 443 line~;
#X obj 391 404 osc~;
#X obj 492 450 *~;
#X obj 491 406 osc~;
#X obj 599 438 *~;
#X obj 598 401 osc~;
#X obj 717 450 *~;
#X obj 720 403 osc~;
#X obj 381 591 *~;
#X obj 380 554 osc~;
#X obj 509 602 *~;
#X obj 513 557 osc~;
#X obj 636 592 *~;
#X obj 635 555 osc~;
#X obj 770 593 *~;
#X obj 769 556 osc~;
#X obj 528 441 line~;
#X obj 643 440 line~;
#X obj 768 441 line~;
#X obj 427 587 line~;
#X obj 557 588 line~;
#X obj 681 592 line~;
#X obj 810 536 line~;
#X obj 391 375 * 1;
#X obj 491 373 * 2;
#X obj 598 366 * 3;
#X obj 720 369 * 4;
#X obj 380 512 * 5;
#X obj 513 526 * 6;
#X obj 635 511 * 7;
#X obj 769 515 * 8;
#X obj 621 238 bng 15 250 50 0 empty empty empty 17 7 0 10 -262144
-1 -1;
#X obj 580 160 inlet;
#X obj 621 209 inlet;
#X floatatom 580 189 5 0 0 0 - - -;
#X obj 580 211 mtof;
#X msg 429 403 0.5 \, 0 800;
#X obj 917 148 vsl 15 128 0 0.8 0 0 empty empty empty 0 -9 0 10 -262144
-1 -1 12700 1;
#X floatatom 917 286 5 0 0 0 - - -;
#X obj 392 477 *~;
#X obj 492 480 *~;
#X obj 599 478 *~;
#X obj 716 480 *~;
#X obj 389 633 *~;
#X obj 489 636 *~;
#X obj 596 634 *~;
#X obj 713 636 *~;
#X obj 959 149 vsl 15 128 0 0.8 0 0 empty empty empty 0 -9 0 10 -262144
-1 -1 7937 1;
#X floatatom 959 287 5 0 0 0 - - -;
#X obj 1000 150 vsl 15 128 0 0.8 0 0 empty empty empty 0 -9 0 10 -262144
-1 -1 3969 1;
#X floatatom 1000 288 5 0 0 0 - - -;
#X obj 1041 151 vsl 15 128 0 0.8 0 0 empty empty empty 0 -9 0 10 -262144
-1 -1 1984 1;
#X floatatom 1041 289 5 0 0 0 - - -;
#X obj 1078 151 vsl 15 128 0 0.8 0 0 empty empty empty 0 -9 0 10 -262144
-1 -1 992 1;
#X floatatom 1079 290 5 0 0 0 - - -;
#X obj 1117 152 vsl 15 128 0 0.8 0 0 empty empty empty 0 -9 0 10 -262144
-1 -1 496 1;
#X floatatom 1117 290 5 0 0 0 - - -;
#X obj 1156 152 vsl 15 128 0 0.8 0 0 empty empty empty 0 -9 0 10 -262144
-1 -1 248 1;
#X floatatom 1156 290 5 0 0 0 - - -;
#X obj 1193 153 vsl 15 128 0 0.8 0 0 empty empty empty 0 -9 0 10 -262144
-1 -1 124 1;
#X floatatom 1193 291 5 0 0 0 - - -;
#X obj 917 82 1;
#X obj 993 45 bng 15 250 50 0 empty empty empty 17 7 0 10 -262144 -1
-1;
#X obj 917 50 inlet;
#X obj 577 714 outlet~;
#X msg 527 401 0.5 \, 0 800;
#X msg 643 400 0.5 \, 0 800;
#X msg 768 402 0.5 \, 0 800;
#X msg 428 547 0.5 \, 0 800;
#X msg 557 548 0.5 \, 0 800;
#X msg 682 551 0.5 \, 0 800;
#X msg 810 507 0.5 \, 0 800;
#X obj 959 99 / 2;
#X obj 1000 99 / 2;
#X obj 1041 99 / 2;
#X obj 1078 99 / 2;
#X obj 1117 99 / 2;
#X obj 1156 99 / 2;
#X obj 1193 99 / 2;
#X text 318 251 Additive Synth;
#X connect 0 0 25 0;
#X connect 0 0 26 0;
#X connect 0 0 27 0;
#X connect 0 0 28 0;
#X connect 0 0 29 0;
#X connect 0 0 30 0;
#X connect 0 0 31 0;
#X connect 0 0 32 0;
#X connect 1 0 41 0;
#X connect 2 0 1 1;
#X connect 3 0 1 0;
#X connect 4 0 42 0;
#X connect 5 0 4 0;
#X connect 6 0 43 0;
#X connect 7 0 6 0;
#X connect 8 0 44 0;
#X connect 9 0 8 0;
#X connect 10 0 45 0;
#X connect 11 0 10 0;
#X connect 12 0 46 0;
#X connect 13 0 12 0;
#X connect 14 0 47 0;
#X connect 15 0 14 0;
#X connect 16 0 48 0;
#X connect 17 0 16 0;
#X connect 18 0 4 1;
#X connect 19 0 6 1;
#X connect 20 0 8 1;
#X connect 21 0 10 1;
#X connect 22 0 12 1;
#X connect 23 0 14 1;
#X connect 24 0 16 1;
#X connect 25 0 3 0;
#X connect 26 0 5 0;
#X connect 27 0 7 0;
#X connect 28 0 9 0;
#X connect 29 0 11 0;
#X connect 30 0 13 0;
#X connect 31 0 15 0;
#X connect 32 0 17 0;
#X connect 33 0 38 0;
#X connect 33 0 67 0;
#X connect 33 0 68 0;
#X connect 33 0 69 0;
#X connect 33 0 70 0;
#X connect 33 0 71 0;
#X connect 33 0 72 0;
#X connect 33 0 73 0;
#X connect 34 0 36 0;
#X connect 35 0 33 0;
#X connect 36 0 37 0;
#X connect 37 0 0 0;
#X connect 38 0 2 0;
#X connect 39 0 40 0;
#X connect 40 0 41 1;
#X connect 41 0 66 0;
#X connect 42 0 66 0;
#X connect 43 0 66 0;
#X connect 44 0 66 0;
#X connect 45 0 66 0;
#X connect 46 0 66 0;
#X connect 47 0 66 0;
#X connect 48 0 66 0;
#X connect 49 0 50 0;
#X connect 50 0 42 1;
#X connect 51 0 52 0;
#X connect 52 0 43 1;
#X connect 53 0 54 0;
#X connect 54 0 44 1;
#X connect 55 0 56 0;
#X connect 56 0 45 1;
#X connect 57 0 58 0;
#X connect 58 0 46 1;
#X connect 59 0 60 0;
#X connect 60 0 47 1;
#X connect 61 0 62 0;
#X connect 62 0 48 1;
#X connect 63 0 39 0;
#X connect 63 0 74 0;
#X connect 64 0 63 0;
#X connect 65 0 63 0;
#X connect 67 0 18 0;
#X connect 68 0 19 0;
#X connect 69 0 20 0;
#X connect 70 0 21 0;
#X connect 71 0 22 0;
#X connect 72 0 23 0;
#X connect 73 0 24 0;
#X connect 74 0 49 0;
#X connect 74 0 75 0;
#X connect 75 0 51 0;
#X connect 75 0 76 0;
#X connect 76 0 53 0;
#X connect 76 0 77 0;
#X connect 77 0 55 0;
#X connect 77 0 78 0;
#X connect 78 0 57 0;
#X connect 78 0 79 0;
#X connect 79 0 59 0;
#X connect 79 0 80 0;
#X connect 80 0 61 0;
#X restore 174 131 pd additive_synth;
#N canvas 0 23 1280 699 additive_synth 0;
#X floatatom 580 238 5 0 0 0 - - -;
#X obj 392 441 *~;
#X obj 429 443 line~;
#X obj 391 404 osc~;
#X obj 492 450 *~;
#X obj 491 406 osc~;
#X obj 599 438 *~;
#X obj 598 401 osc~;
#X obj 717 450 *~;
#X obj 720 403 osc~;
#X obj 381 591 *~;
#X obj 380 554 osc~;
#X obj 509 602 *~;
#X obj 513 557 osc~;
#X obj 636 592 *~;
#X obj 635 555 osc~;
#X obj 770 593 *~;
#X obj 769 556 osc~;
#X obj 528 441 line~;
#X obj 643 440 line~;
#X obj 768 441 line~;
#X obj 427 587 line~;
#X obj 557 588 line~;
#X obj 681 592 line~;
#X obj 810 536 line~;
#X obj 391 375 * 1;
#X obj 491 373 * 2;
#X obj 598 366 * 3;
#X obj 720 369 * 4;
#X obj 380 512 * 5;
#X obj 513 526 * 6;
#X obj 635 511 * 7;
#X obj 769 515 * 8;
#X obj 621 238 bng 15 250 50 0 empty empty empty 17 7 0 10 -262144
-1 -1;
#X obj 580 160 inlet;
#X obj 621 209 inlet;
#X floatatom 580 189 5 0 0 0 - - -;
#X obj 580 211 mtof;
#X msg 429 403 0.5 \, 0 800;
#X obj 917 148 vsl 15 128 0 0.8 0 0 empty empty empty 0 -9 0 10 -262144
-1 -1 12700 1;
#X floatatom 917 286 5 0 0 0 - - -;
#X obj 392 477 *~;
#X obj 492 480 *~;
#X obj 599 478 *~;
#X obj 716 480 *~;
#X obj 389 633 *~;
#X obj 489 636 *~;
#X obj 596 634 *~;
#X obj 713 636 *~;
#X obj 959 149 vsl 15 128 0 0.8 0 0 empty empty empty 0 -9 0 10 -262144
-1 -1 7937 1;
#X floatatom 959 287 5 0 0 0 - - -;
#X obj 1000 150 vsl 15 128 0 0.8 0 0 empty empty empty 0 -9 0 10 -262144
-1 -1 3969 1;
#X floatatom 1000 288 5 0 0 0 - - -;
#X obj 1041 151 vsl 15 128 0 0.8 0 0 empty empty empty 0 -9 0 10 -262144
-1 -1 1984 1;
#X floatatom 1041 289 5 0 0 0 - - -;
#X obj 1078 151 vsl 15 128 0 0.8 0 0 empty empty empty 0 -9 0 10 -262144
-1 -1 992 1;
#X floatatom 1079 290 5 0 0 0 - - -;
#X obj 1117 152 vsl 15 128 0 0.8 0 0 empty empty empty 0 -9 0 10 -262144
-1 -1 496 1;
#X floatatom 1117 290 5 0 0 0 - - -;
#X obj 1156 152 vsl 15 128 0 0.8 0 0 empty empty empty 0 -9 0 10 -262144
-1 -1 248 1;
#X floatatom 1156 290 5 0 0 0 - - -;
#X obj 1193 153 vsl 15 128 0 0.8 0 0 empty empty empty 0 -9 0 10 -262144
-1 -1 124 1;
#X floatatom 1193 291 5 0 0 0 - - -;
#X obj 917 82 1;
#X obj 993 45 bng 15 250 50 0 empty empty empty 17 7 0 10 -262144 -1
-1;
#X obj 917 50 inlet;
#X obj 577 714 outlet~;
#X msg 527 401 0.5 \, 0 800;
#X msg 643 400 0.5 \, 0 800;
#X msg 768 402 0.5 \, 0 800;
#X msg 428 547 0.5 \, 0 800;
#X msg 557 548 0.5 \, 0 800;
#X msg 682 551 0.5 \, 0 800;
#X msg 810 507 0.5 \, 0 800;
#X obj 959 99 / 2;
#X obj 1000 99 / 2;
#X obj 1041 99 / 2;
#X obj 1078 99 / 2;
#X obj 1117 99 / 2;
#X obj 1156 99 / 2;
#X obj 1193 99 / 2;
#X text 298 231 Additive Synth;
#X connect 0 0 25 0;
#X connect 0 0 26 0;
#X connect 0 0 27 0;
#X connect 0 0 28 0;
#X connect 0 0 29 0;
#X connect 0 0 30 0;
#X connect 0 0 31 0;
#X connect 0 0 32 0;
#X connect 1 0 41 0;
#X connect 2 0 1 1;
#X connect 3 0 1 0;
#X connect 4 0 42 0;
#X connect 5 0 4 0;
#X connect 6 0 43 0;
#X connect 7 0 6 0;
#X connect 8 0 44 0;
#X connect 9 0 8 0;
#X connect 10 0 45 0;
#X connect 11 0 10 0;
#X connect 12 0 46 0;
#X connect 13 0 12 0;
#X connect 14 0 47 0;
#X connect 15 0 14 0;
#X connect 16 0 48 0;
#X connect 17 0 16 0;
#X connect 18 0 4 1;
#X connect 19 0 6 1;
#X connect 20 0 8 1;
#X connect 21 0 10 1;
#X connect 22 0 12 1;
#X connect 23 0 14 1;
#X connect 24 0 16 1;
#X connect 25 0 3 0;
#X connect 26 0 5 0;
#X connect 27 0 7 0;
#X connect 28 0 9 0;
#X connect 29 0 11 0;
#X connect 30 0 13 0;
#X connect 31 0 15 0;
#X connect 32 0 17 0;
#X connect 33 0 38 0;
#X connect 33 0 67 0;
#X connect 33 0 68 0;
#X connect 33 0 69 0;
#X connect 33 0 70 0;
#X connect 33 0 71 0;
#X connect 33 0 72 0;
#X connect 33 0 73 0;
#X connect 34 0 36 0;
#X connect 35 0 33 0;
#X connect 36 0 37 0;
#X connect 37 0 0 0;
#X connect 38 0 2 0;
#X connect 39 0 40 0;
#X connect 40 0 41 1;
#X connect 41 0 66 0;
#X connect 42 0 66 0;
#X connect 43 0 66 0;
#X connect 44 0 66 0;
#X connect 45 0 66 0;
#X connect 46 0 66 0;
#X connect 47 0 66 0;
#X connect 48 0 66 0;
#X connect 49 0 50 0;
#X connect 50 0 42 1;
#X connect 51 0 52 0;
#X connect 52 0 43 1;
#X connect 53 0 54 0;
#X connect 54 0 44 1;
#X connect 55 0 56 0;
#X connect 56 0 45 1;
#X connect 57 0 58 0;
#X connect 58 0 46 1;
#X connect 59 0 60 0;
#X connect 60 0 47 1;
#X connect 61 0 62 0;
#X connect 62 0 48 1;
#X connect 63 0 39 0;
#X connect 63 0 74 0;
#X connect 64 0 63 0;
#X connect 65 0 63 0;
#X connect 67 0 18 0;
#X connect 68 0 19 0;
#X connect 69 0 20 0;
#X connect 70 0 21 0;
#X connect 71 0 22 0;
#X connect 72 0 23 0;
#X connect 73 0 24 0;
#X connect 74 0 49 0;
#X connect 74 0 75 0;
#X connect 75 0 51 0;
#X connect 75 0 76 0;
#X connect 76 0 53 0;
#X connect 76 0 77 0;
#X connect 77 0 55 0;
#X connect 77 0 78 0;
#X connect 78 0 57 0;
#X connect 78 0 79 0;
#X connect 79 0 59 0;
#X connect 79 0 80 0;
#X connect 80 0 61 0;
#X restore 291 131 pd additive_synth;
#X obj 566 -62 bng 15 250 50 0 empty empty empty 17 7 0 10 -262144
-1 -1;
#X obj 566 -98 inlet;
#X obj 569 181 outlet~;
#X obj 105 106 bng 15 250 50 0 empty empty empty 17 7 0 10 -262144
-1 -1;
#X floatatom 408 106 5 0 0 0 - - -;
#N canvas 0 23 1280 738 additive_synth 0;
#X floatatom 580 238 5 0 0 0 - - -;
#X obj 392 441 *~;
#X obj 429 443 line~;
#X obj 391 404 osc~;
#X obj 492 450 *~;
#X obj 491 406 osc~;
#X obj 599 438 *~;
#X obj 598 401 osc~;
#X obj 717 450 *~;
#X obj 720 403 osc~;
#X obj 381 591 *~;
#X obj 380 554 osc~;
#X obj 509 602 *~;
#X obj 513 557 osc~;
#X obj 636 592 *~;
#X obj 635 555 osc~;
#X obj 770 593 *~;
#X obj 769 556 osc~;
#X obj 528 441 line~;
#X obj 643 440 line~;
#X obj 768 441 line~;
#X obj 427 587 line~;
#X obj 557 588 line~;
#X obj 681 592 line~;
#X obj 810 536 line~;
#X obj 391 375 * 1;
#X obj 491 373 * 2;
#X obj 598 366 * 3;
#X obj 720 369 * 4;
#X obj 380 512 * 5;
#X obj 513 526 * 6;
#X obj 635 511 * 7;
#X obj 769 515 * 8;
#X obj 621 238 bng 15 250 50 0 empty empty empty 17 7 0 10 -262144
-1 -1;
#X obj 580 160 inlet;
#X obj 621 209 inlet;
#X floatatom 580 189 5 0 0 0 - - -;
#X obj 580 211 mtof;
#X msg 429 403 0.5 \, 0 800;
#X obj 917 148 vsl 15 128 0 0.8 0 0 empty empty empty 0 -9 0 10 -262144
-1 -1 12700 1;
#X floatatom 917 286 5 0 0 0 - - -;
#X obj 392 477 *~;
#X obj 492 480 *~;
#X obj 599 478 *~;
#X obj 716 480 *~;
#X obj 389 633 *~;
#X obj 489 636 *~;
#X obj 596 634 *~;
#X obj 713 636 *~;
#X obj 959 149 vsl 15 128 0 0.8 0 0 empty empty empty 0 -9 0 10 -262144
-1 -1 7937 1;
#X floatatom 959 287 5 0 0 0 - - -;
#X obj 1000 150 vsl 15 128 0 0.8 0 0 empty empty empty 0 -9 0 10 -262144
-1 -1 3969 1;
#X floatatom 1000 288 5 0 0 0 - - -;
#X obj 1041 151 vsl 15 128 0 0.8 0 0 empty empty empty 0 -9 0 10 -262144
-1 -1 1984 1;
#X floatatom 1041 289 5 0 0 0 - - -;
#X obj 1078 151 vsl 15 128 0 0.8 0 0 empty empty empty 0 -9 0 10 -262144
-1 -1 992 1;
#X floatatom 1079 290 5 0 0 0 - - -;
#X obj 1117 152 vsl 15 128 0 0.8 0 0 empty empty empty 0 -9 0 10 -262144
-1 -1 496 1;
#X floatatom 1117 290 5 0 0 0 - - -;
#X obj 1156 152 vsl 15 128 0 0.8 0 0 empty empty empty 0 -9 0 10 -262144
-1 -1 248 1;
#X floatatom 1156 290 5 0 0 0 - - -;
#X obj 1193 153 vsl 15 128 0 0.8 0 0 empty empty empty 0 -9 0 10 -262144
-1 -1 124 1;
#X floatatom 1193 291 5 0 0 0 - - -;
#X obj 917 82 1;
#X obj 993 45 bng 15 250 50 0 empty empty empty 17 7 0 10 -262144 -1
-1;
#X obj 917 50 inlet;
#X obj 577 714 outlet~;
#X msg 527 401 0.5 \, 0 800;
#X msg 643 400 0.5 \, 0 800;
#X msg 768 402 0.5 \, 0 800;
#X msg 428 547 0.5 \, 0 800;
#X msg 557 548 0.5 \, 0 800;
#X msg 682 551 0.5 \, 0 800;
#X msg 810 507 0.5 \, 0 800;
#X obj 959 99 / 2;
#X obj 1000 99 / 2;
#X obj 1041 99 / 2;
#X obj 1078 99 / 2;
#X obj 1117 99 / 2;
#X obj 1156 99 / 2;
#X obj 1193 99 / 2;
#X text 328 261 Additive Synth;
#X connect 0 0 25 0;
#X connect 0 0 26 0;
#X connect 0 0 27 0;
#X connect 0 0 28 0;
#X connect 0 0 29 0;
#X connect 0 0 30 0;
#X connect 0 0 31 0;
#X connect 0 0 32 0;
#X connect 1 0 41 0;
#X connect 2 0 1 1;
#X connect 3 0 1 0;
#X connect 4 0 42 0;
#X connect 5 0 4 0;
#X connect 6 0 43 0;
#X connect 7 0 6 0;
#X connect 8 0 44 0;
#X connect 9 0 8 0;
#X connect 10 0 45 0;
#X connect 11 0 10 0;
#X connect 12 0 46 0;
#X connect 13 0 12 0;
#X connect 14 0 47 0;
#X connect 15 0 14 0;
#X connect 16 0 48 0;
#X connect 17 0 16 0;
#X connect 18 0 4 1;
#X connect 19 0 6 1;
#X connect 20 0 8 1;
#X connect 21 0 10 1;
#X connect 22 0 12 1;
#X connect 23 0 14 1;
#X connect 24 0 16 1;
#X connect 25 0 3 0;
#X connect 26 0 5 0;
#X connect 27 0 7 0;
#X connect 28 0 9 0;
#X connect 29 0 11 0;
#X connect 30 0 13 0;
#X connect 31 0 15 0;
#X connect 32 0 17 0;
#X connect 33 0 38 0;
#X connect 33 0 67 0;
#X connect 33 0 68 0;
#X connect 33 0 69 0;
#X connect 33 0 70 0;
#X connect 33 0 71 0;
#X connect 33 0 72 0;
#X connect 33 0 73 0;
#X connect 34 0 36 0;
#X connect 35 0 33 0;
#X connect 36 0 37 0;
#X connect 37 0 0 0;
#X connect 38 0 2 0;
#X connect 39 0 40 0;
#X connect 40 0 41 1;
#X connect 41 0 66 0;
#X connect 42 0 66 0;
#X connect 43 0 66 0;
#X connect 44 0 66 0;
#X connect 45 0 66 0;
#X connect 46 0 66 0;
#X connect 47 0 66 0;
#X connect 48 0 66 0;
#X connect 49 0 50 0;
#X connect 50 0 42 1;
#X connect 51 0 52 0;
#X connect 52 0 43 1;
#X connect 53 0 54 0;
#X connect 54 0 44 1;
#X connect 55 0 56 0;
#X connect 56 0 45 1;
#X connect 57 0 58 0;
#X connect 58 0 46 1;
#X connect 59 0 60 0;
#X connect 60 0 47 1;
#X connect 61 0 62 0;
#X connect 62 0 48 1;
#X connect 63 0 39 0;
#X connect 63 0 74 0;
#X connect 64 0 63 0;
#X connect 65 0 63 0;
#X connect 67 0 18 0;
#X connect 68 0 19 0;
#X connect 69 0 20 0;
#X connect 70 0 21 0;
#X connect 71 0 22 0;
#X connect 72 0 23 0;
#X connect 73 0 24 0;
#X connect 74 0 49 0;
#X connect 74 0 75 0;
#X connect 75 0 51 0;
#X connect 75 0 76 0;
#X connect 76 0 53 0;
#X connect 76 0 77 0;
#X connect 77 0 55 0;
#X connect 77 0 78 0;
#X connect 78 0 57 0;
#X connect 78 0 79 0;
#X connect 79 0 59 0;
#X connect 79 0 80 0;
#X connect 80 0 61 0;
#X restore 408 130 pd additive_synth;
#X floatatom 526 105 5 0 0 0 - - -;
#X obj 575 105 bng 15 250 50 0 empty empty empty 17 7 0 10 -262144
-1 -1;
#X floatatom 643 107 5 0 0 0 - - -;
#X obj 692 107 bng 15 250 50 0 empty empty empty 17 7 0 10 -262144
-1 -1;
#N canvas 0 23 1280 699 additive_synth 0;
#X floatatom 580 238 5 0 0 0 - - -;
#X obj 392 441 *~;
#X obj 429 443 line~;
#X obj 391 404 osc~;
#X obj 492 450 *~;
#X obj 491 406 osc~;
#X obj 599 438 *~;
#X obj 598 401 osc~;
#X obj 717 450 *~;
#X obj 720 403 osc~;
#X obj 381 591 *~;
#X obj 380 554 osc~;
#X obj 509 602 *~;
#X obj 513 557 osc~;
#X obj 636 592 *~;
#X obj 635 555 osc~;
#X obj 770 593 *~;
#X obj 769 556 osc~;
#X obj 528 441 line~;
#X obj 643 440 line~;
#X obj 768 441 line~;
#X obj 427 587 line~;
#X obj 557 588 line~;
#X obj 681 592 line~;
#X obj 810 536 line~;
#X obj 391 375 * 1;
#X obj 491 373 * 2;
#X obj 598 366 * 3;
#X obj 720 369 * 4;
#X obj 380 512 * 5;
#X obj 513 526 * 6;
#X obj 635 511 * 7;
#X obj 769 515 * 8;
#X obj 621 238 bng 15 250 50 0 empty empty empty 17 7 0 10 -262144
-1 -1;
#X obj 580 160 inlet;
#X obj 621 209 inlet;
#X floatatom 580 189 5 0 0 0 - - -;
#X obj 580 211 mtof;
#X msg 429 403 0.5 \, 0 800;
#X obj 917 148 vsl 15 128 0 0.8 0 0 empty empty empty 0 -9 0 10 -262144
-1 -1 0 1;
#X floatatom 917 286 5 0 0 0 - - -;
#X obj 392 477 *~;
#X obj 492 480 *~;
#X obj 599 478 *~;
#X obj 716 480 *~;
#X obj 389 633 *~;
#X obj 489 636 *~;
#X obj 596 634 *~;
#X obj 713 636 *~;
#X obj 959 149 vsl 15 128 0 0.8 0 0 empty empty empty 0 -9 0 10 -262144
-1 -1 0 1;
#X floatatom 959 287 5 0 0 0 - - -;
#X obj 1000 150 vsl 15 128 0 0.8 0 0 empty empty empty 0 -9 0 10 -262144
-1 -1 0 1;
#X floatatom 1000 288 5 0 0 0 - - -;
#X obj 1041 151 vsl 15 128 0 0.8 0 0 empty empty empty 0 -9 0 10 -262144
-1 -1 0 1;
#X floatatom 1041 289 5 0 0 0 - - -;
#X obj 1078 151 vsl 15 128 0 0.8 0 0 empty empty empty 0 -9 0 10 -262144
-1 -1 0 1;
#X floatatom 1079 290 5 0 0 0 - - -;
#X obj 1117 152 vsl 15 128 0 0.8 0 0 empty empty empty 0 -9 0 10 -262144
-1 -1 0 1;
#X floatatom 1117 290 5 0 0 0 - - -;
#X obj 1156 152 vsl 15 128 0 0.8 0 0 empty empty empty 0 -9 0 10 -262144
-1 -1 0 1;
#X floatatom 1156 290 5 0 0 0 - - -;
#X obj 1193 153 vsl 15 128 0 0.8 0 0 empty empty empty 0 -9 0 10 -262144
-1 -1 0 1;
#X floatatom 1193 291 5 0 0 0 - - -;
#X obj 917 82 1;
#X obj 993 45 bng 15 250 50 0 empty empty empty 17 7 0 10 -262144 -1
-1;
#X obj 917 50 inlet;
#X obj 577 714 outlet~;
#X msg 527 401 0.5 \, 0 800;
#X msg 643 400 0.5 \, 0 800;
#X msg 768 402 0.5 \, 0 800;
#X msg 428 547 0.5 \, 0 800;
#X msg 557 548 0.5 \, 0 800;
#X msg 682 551 0.5 \, 0 800;
#X msg 810 507 0.5 \, 0 800;
#X obj 959 99 / 2;
#X obj 1000 99 / 2;
#X obj 1041 99 / 2;
#X obj 1078 99 / 2;
#X obj 1117 99 / 2;
#X obj 1156 99 / 2;
#X obj 1193 99 / 2;
#X text 338 271 Additive Synth;
#X connect 0 0 25 0;
#X connect 0 0 26 0;
#X connect 0 0 27 0;
#X connect 0 0 28 0;
#X connect 0 0 29 0;
#X connect 0 0 30 0;
#X connect 0 0 31 0;
#X connect 0 0 32 0;
#X connect 1 0 41 0;
#X connect 2 0 1 1;
#X connect 3 0 1 0;
#X connect 4 0 42 0;
#X connect 5 0 4 0;
#X connect 6 0 43 0;
#X connect 7 0 6 0;
#X connect 8 0 44 0;
#X connect 9 0 8 0;
#X connect 10 0 45 0;
#X connect 11 0 10 0;
#X connect 12 0 46 0;
#X connect 13 0 12 0;
#X connect 14 0 47 0;
#X connect 15 0 14 0;
#X connect 16 0 48 0;
#X connect 17 0 16 0;
#X connect 18 0 4 1;
#X connect 19 0 6 1;
#X connect 20 0 8 1;
#X connect 21 0 10 1;
#X connect 22 0 12 1;
#X connect 23 0 14 1;
#X connect 24 0 16 1;
#X connect 25 0 3 0;
#X connect 26 0 5 0;
#X connect 27 0 7 0;
#X connect 28 0 9 0;
#X connect 29 0 11 0;
#X connect 30 0 13 0;
#X connect 31 0 15 0;
#X connect 32 0 17 0;
#X connect 33 0 38 0;
#X connect 33 0 67 0;
#X connect 33 0 68 0;
#X connect 33 0 69 0;
#X connect 33 0 70 0;
#X connect 33 0 71 0;
#X connect 33 0 72 0;
#X connect 33 0 73 0;
#X connect 34 0 36 0;
#X connect 35 0 33 0;
#X connect 36 0 37 0;
#X connect 37 0 0 0;
#X connect 38 0 2 0;
#X connect 39 0 40 0;
#X connect 40 0 41 1;
#X connect 41 0 66 0;
#X connect 42 0 66 0;
#X connect 43 0 66 0;
#X connect 44 0 66 0;
#X connect 45 0 66 0;
#X connect 46 0 66 0;
#X connect 47 0 66 0;
#X connect 48 0 66 0;
#X connect 49 0 50 0;
#X connect 50 0 42 1;
#X connect 51 0 52 0;
#X connect 52 0 43 1;
#X connect 53 0 54 0;
#X connect 54 0 44 1;
#X connect 55 0 56 0;
#X connect 56 0 45 1;
#X connect 57 0 58 0;
#X connect 58 0 46 1;
#X connect 59 0 60 0;
#X connect 60 0 47 1;
#X connect 61 0 62 0;
#X connect 62 0 48 1;
#X connect 63 0 39 0;
#X connect 63 0 74 0;
#X connect 64 0 63 0;
#X connect 65 0 63 0;
#X connect 67 0 18 0;
#X connect 68 0 19 0;
#X connect 69 0 20 0;
#X connect 70 0 21 0;
#X connect 71 0 22 0;
#X connect 72 0 23 0;
#X connect 73 0 24 0;
#X connect 74 0 49 0;
#X connect 74 0 75 0;
#X connect 75 0 51 0;
#X connect 75 0 76 0;
#X connect 76 0 53 0;
#X connect 76 0 77 0;
#X connect 77 0 55 0;
#X connect 77 0 78 0;
#X connect 78 0 57 0;
#X connect 78 0 79 0;
#X connect 79 0 59 0;
#X connect 79 0 80 0;
#X connect 80 0 61 0;
#X restore 526 130 pd additive_synth;
#N canvas 0 23 1280 699 additive_synth 0;
#X floatatom 580 238 5 0 0 0 - - -;
#X obj 392 441 *~;
#X obj 429 443 line~;
#X obj 391 404 osc~;
#X obj 492 450 *~;
#X obj 491 406 osc~;
#X obj 599 438 *~;
#X obj 598 401 osc~;
#X obj 717 450 *~;
#X obj 720 403 osc~;
#X obj 381 591 *~;
#X obj 380 554 osc~;
#X obj 509 602 *~;
#X obj 513 557 osc~;
#X obj 636 592 *~;
#X obj 635 555 osc~;
#X obj 770 593 *~;
#X obj 769 556 osc~;
#X obj 528 441 line~;
#X obj 643 440 line~;
#X obj 768 441 line~;
#X obj 427 587 line~;
#X obj 557 588 line~;
#X obj 681 592 line~;
#X obj 810 536 line~;
#X obj 391 375 * 1;
#X obj 491 373 * 2;
#X obj 598 366 * 3;
#X obj 720 369 * 4;
#X obj 380 512 * 5;
#X obj 513 526 * 6;
#X obj 635 511 * 7;
#X obj 769 515 * 8;
#X obj 621 238 bng 15 250 50 0 empty empty empty 17 7 0 10 -262144
-1 -1;
#X obj 580 160 inlet;
#X obj 621 209 inlet;
#X floatatom 580 189 5 0 0 0 - - -;
#X obj 580 211 mtof;
#X msg 429 403 0.5 \, 0 800;
#X obj 917 148 vsl 15 128 0 0.8 0 0 empty empty empty 0 -9 0 10 -262144
-1 -1 12700 1;
#X floatatom 917 286 5 0 0 0 - - -;
#X obj 392 477 *~;
#X obj 492 480 *~;
#X obj 599 478 *~;
#X obj 716 480 *~;
#X obj 389 633 *~;
#X obj 489 636 *~;
#X obj 596 634 *~;
#X obj 713 636 *~;
#X obj 959 149 vsl 15 128 0 0.8 0 0 empty empty empty 0 -9 0 10 -262144
-1 -1 7937 1;
#X floatatom 959 287 5 0 0 0 - - -;
#X obj 1000 150 vsl 15 128 0 0.8 0 0 empty empty empty 0 -9 0 10 -262144
-1 -1 3969 1;
#X floatatom 1000 288 5 0 0 0 - - -;
#X obj 1041 151 vsl 15 128 0 0.8 0 0 empty empty empty 0 -9 0 10 -262144
-1 -1 1984 1;
#X floatatom 1041 289 5 0 0 0 - - -;
#X obj 1078 151 vsl 15 128 0 0.8 0 0 empty empty empty 0 -9 0 10 -262144
-1 -1 992 1;
#X floatatom 1079 290 5 0 0 0 - - -;
#X obj 1117 152 vsl 15 128 0 0.8 0 0 empty empty empty 0 -9 0 10 -262144
-1 -1 496 1;
#X floatatom 1117 290 5 0 0 0 - - -;
#X obj 1156 152 vsl 15 128 0 0.8 0 0 empty empty empty 0 -9 0 10 -262144
-1 -1 248 1;
#X floatatom 1156 290 5 0 0 0 - - -;
#X obj 1193 153 vsl 15 128 0 0.8 0 0 empty empty empty 0 -9 0 10 -262144
-1 -1 124 1;
#X floatatom 1193 291 5 0 0 0 - - -;
#X obj 917 82 1;
#X obj 993 45 bng 15 250 50 0 empty empty empty 17 7 0 10 -262144 -1
-1;
#X obj 917 50 inlet;
#X obj 577 714 outlet~;
#X msg 527 401 0.5 \, 0 800;
#X msg 643 400 0.5 \, 0 800;
#X msg 768 402 0.5 \, 0 800;
#X msg 428 547 0.5 \, 0 800;
#X msg 557 548 0.5 \, 0 800;
#X msg 682 551 0.5 \, 0 800;
#X msg 810 507 0.5 \, 0 800;
#X obj 959 99 / 2;
#X obj 1000 99 / 2;
#X obj 1041 99 / 2;
#X obj 1078 99 / 2;
#X obj 1117 99 / 2;
#X obj 1156 99 / 2;
#X obj 1193 99 / 2;
#X text 348 281 Additive Synth;
#X connect 0 0 25 0;
#X connect 0 0 26 0;
#X connect 0 0 27 0;
#X connect 0 0 28 0;
#X connect 0 0 29 0;
#X connect 0 0 30 0;
#X connect 0 0 31 0;
#X connect 0 0 32 0;
#X connect 1 0 41 0;
#X connect 2 0 1 1;
#X connect 3 0 1 0;
#X connect 4 0 42 0;
#X connect 5 0 4 0;
#X connect 6 0 43 0;
#X connect 7 0 6 0;
#X connect 8 0 44 0;
#X connect 9 0 8 0;
#X connect 10 0 45 0;
#X connect 11 0 10 0;
#X connect 12 0 46 0;
#X connect 13 0 12 0;
#X connect 14 0 47 0;
#X connect 15 0 14 0;
#X connect 16 0 48 0;
#X connect 17 0 16 0;
#X connect 18 0 4 1;
#X connect 19 0 6 1;
#X connect 20 0 8 1;
#X connect 21 0 10 1;
#X connect 22 0 12 1;
#X connect 23 0 14 1;
#X connect 24 0 16 1;
#X connect 25 0 3 0;
#X connect 26 0 5 0;
#X connect 27 0 7 0;
#X connect 28 0 9 0;
#X connect 29 0 11 0;
#X connect 30 0 13 0;
#X connect 31 0 15 0;
#X connect 32 0 17 0;
#X connect 33 0 38 0;
#X connect 33 0 67 0;
#X connect 33 0 68 0;
#X connect 33 0 69 0;
#X connect 33 0 70 0;
#X connect 33 0 71 0;
#X connect 33 0 72 0;
#X connect 33 0 73 0;
#X connect 34 0 36 0;
#X connect 35 0 33 0;
#X connect 36 0 37 0;
#X connect 37 0 0 0;
#X connect 38 0 2 0;
#X connect 39 0 40 0;
#X connect 40 0 41 1;
#X connect 41 0 66 0;
#X connect 42 0 66 0;
#X connect 43 0 66 0;
#X connect 44 0 66 0;
#X connect 45 0 66 0;
#X connect 46 0 66 0;
#X connect 47 0 66 0;
#X connect 48 0 66 0;
#X connect 49 0 50 0;
#X connect 50 0 42 1;
#X connect 51 0 52 0;
#X connect 52 0 43 1;
#X connect 53 0 54 0;
#X connect 54 0 44 1;
#X connect 55 0 56 0;
#X connect 56 0 45 1;
#X connect 57 0 58 0;
#X connect 58 0 46 1;
#X connect 59 0 60 0;
#X connect 60 0 47 1;
#X connect 61 0 62 0;
#X connect 62 0 48 1;
#X connect 63 0 39 0;
#X connect 63 0 74 0;
#X connect 64 0 63 0;
#X connect 65 0 63 0;
#X connect 67 0 18 0;
#X connect 68 0 19 0;
#X connect 69 0 20 0;
#X connect 70 0 21 0;
#X connect 71 0 22 0;
#X connect 72 0 23 0;
#X connect 73 0 24 0;
#X connect 74 0 49 0;
#X connect 74 0 75 0;
#X connect 75 0 51 0;
#X connect 75 0 76 0;
#X connect 76 0 53 0;
#X connect 76 0 77 0;
#X connect 77 0 55 0;
#X connect 77 0 78 0;
#X connect 78 0 57 0;
#X connect 78 0 79 0;
#X connect 79 0 59 0;
#X connect 79 0 80 0;
#X connect 80 0 61 0;
#X restore 643 130 pd additive_synth;
#X obj 457 105 bng 15 250 50 0 empty empty empty 17 7 0 10 -262144
-1 -1;
#X floatatom 757 105 5 0 0 0 - - -;
#N canvas 0 23 1280 738 additive_synth 0;
#X floatatom 580 238 5 0 0 0 - - -;
#X obj 392 441 *~;
#X obj 429 443 line~;
#X obj 391 404 osc~;
#X obj 492 450 *~;
#X obj 491 406 osc~;
#X obj 599 438 *~;
#X obj 598 401 osc~;
#X obj 717 450 *~;
#X obj 720 403 osc~;
#X obj 381 591 *~;
#X obj 380 554 osc~;
#X obj 509 602 *~;
#X obj 513 557 osc~;
#X obj 636 592 *~;
#X obj 635 555 osc~;
#X obj 770 593 *~;
#X obj 769 556 osc~;
#X obj 528 441 line~;
#X obj 643 440 line~;
#X obj 768 441 line~;
#X obj 427 587 line~;
#X obj 557 588 line~;
#X obj 681 592 line~;
#X obj 810 536 line~;
#X obj 391 375 * 1;
#X obj 491 373 * 2;
#X obj 598 366 * 3;
#X obj 720 369 * 4;
#X obj 380 512 * 5;
#X obj 513 526 * 6;
#X obj 635 511 * 7;
#X obj 769 515 * 8;
#X obj 621 238 bng 15 250 50 0 empty empty empty 17 7 0 10 -262144
-1 -1;
#X obj 580 160 inlet;
#X obj 621 209 inlet;
#X floatatom 580 189 5 0 0 0 - - -;
#X obj 580 211 mtof;
#X msg 429 403 0.5 \, 0 800;
#X obj 917 148 vsl 15 128 0 0.8 0 0 empty empty empty 0 -9 0 10 -262144
-1 -1 12700 1;
#X floatatom 917 286 5 0 0 0 - - -;
#X obj 392 477 *~;
#X obj 492 480 *~;
#X obj 599 478 *~;
#X obj 716 480 *~;
#X obj 389 633 *~;
#X obj 489 636 *~;
#X obj 596 634 *~;
#X obj 713 636 *~;
#X obj 959 149 vsl 15 128 0 0.8 0 0 empty empty empty 0 -9 0 10 -262144
-1 -1 7937 1;
#X floatatom 959 287 5 0 0 0 - - -;
#X obj 1000 150 vsl 15 128 0 0.8 0 0 empty empty empty 0 -9 0 10 -262144
-1 -1 3969 1;
#X floatatom 1000 288 5 0 0 0 - - -;
#X obj 1041 151 vsl 15 128 0 0.8 0 0 empty empty empty 0 -9 0 10 -262144
-1 -1 1984 1;
#X floatatom 1041 289 5 0 0 0 - - -;
#X obj 1078 151 vsl 15 128 0 0.8 0 0 empty empty empty 0 -9 0 10 -262144
-1 -1 992 1;
#X floatatom 1079 290 5 0 0 0 - - -;
#X obj 1117 152 vsl 15 128 0 0.8 0 0 empty empty empty 0 -9 0 10 -262144
-1 -1 496 1;
#X floatatom 1117 290 5 0 0 0 - - -;
#X obj 1156 152 vsl 15 128 0 0.8 0 0 empty empty empty 0 -9 0 10 -262144
-1 -1 248 1;
#X floatatom 1156 290 5 0 0 0 - - -;
#X obj 1193 153 vsl 15 128 0 0.8 0 0 empty empty empty 0 -9 0 10 -262144
-1 -1 124 1;
#X floatatom 1193 291 5 0 0 0 - - -;
#X obj 917 82 1;
#X obj 993 45 bng 15 250 50 0 empty empty empty 17 7 0 10 -262144 -1
-1;
#X obj 917 50 inlet;
#X obj 577 714 outlet~;
#X msg 527 401 0.5 \, 0 800;
#X msg 643 400 0.5 \, 0 800;
#X msg 768 402 0.5 \, 0 800;
#X msg 428 547 0.5 \, 0 800;
#X msg 557 548 0.5 \, 0 800;
#X msg 682 551 0.5 \, 0 800;
#X msg 810 507 0.5 \, 0 800;
#X obj 959 99 / 2;
#X obj 1000 99 / 2;
#X obj 1041 99 / 2;
#X obj 1078 99 / 2;
#X obj 1117 99 / 2;
#X obj 1156 99 / 2;
#X obj 1193 99 / 2;
#X text 358 291 Additive Synth;
#X connect 0 0 25 0;
#X connect 0 0 26 0;
#X connect 0 0 27 0;
#X connect 0 0 28 0;
#X connect 0 0 29 0;
#X connect 0 0 30 0;
#X connect 0 0 31 0;
#X connect 0 0 32 0;
#X connect 1 0 41 0;
#X connect 2 0 1 1;
#X connect 3 0 1 0;
#X connect 4 0 42 0;
#X connect 5 0 4 0;
#X connect 6 0 43 0;
#X connect 7 0 6 0;
#X connect 8 0 44 0;
#X connect 9 0 8 0;
#X connect 10 0 45 0;
#X connect 11 0 10 0;
#X connect 12 0 46 0;
#X connect 13 0 12 0;
#X connect 14 0 47 0;
#X connect 15 0 14 0;
#X connect 16 0 48 0;
#X connect 17 0 16 0;
#X connect 18 0 4 1;
#X connect 19 0 6 1;
#X connect 20 0 8 1;
#X connect 21 0 10 1;
#X connect 22 0 12 1;
#X connect 23 0 14 1;
#X connect 24 0 16 1;
#X connect 25 0 3 0;
#X connect 26 0 5 0;
#X connect 27 0 7 0;
#X connect 28 0 9 0;
#X connect 29 0 11 0;
#X connect 30 0 13 0;
#X connect 31 0 15 0;
#X connect 32 0 17 0;
#X connect 33 0 38 0;
#X connect 33 0 67 0;
#X connect 33 0 68 0;
#X connect 33 0 69 0;
#X connect 33 0 70 0;
#X connect 33 0 71 0;
#X connect 33 0 72 0;
#X connect 33 0 73 0;
#X connect 34 0 36 0;
#X connect 35 0 33 0;
#X connect 36 0 37 0;
#X connect 37 0 0 0;
#X connect 38 0 2 0;
#X connect 39 0 40 0;
#X connect 40 0 41 1;
#X connect 41 0 66 0;
#X connect 42 0 66 0;
#X connect 43 0 66 0;
#X connect 44 0 66 0;
#X connect 45 0 66 0;
#X connect 46 0 66 0;
#X connect 47 0 66 0;
#X connect 48 0 66 0;
#X connect 49 0 50 0;
#X connect 50 0 42 1;
#X connect 51 0 52 0;
#X connect 52 0 43 1;
#X connect 53 0 54 0;
#X connect 54 0 44 1;
#X connect 55 0 56 0;
#X connect 56 0 45 1;
#X connect 57 0 58 0;
#X connect 58 0 46 1;
#X connect 59 0 60 0;
#X connect 60 0 47 1;
#X connect 61 0 62 0;
#X connect 62 0 48 1;
#X connect 63 0 39 0;
#X connect 63 0 74 0;
#X connect 64 0 63 0;
#X connect 65 0 63 0;
#X connect 67 0 18 0;
#X connect 68 0 19 0;
#X connect 69 0 20 0;
#X connect 70 0 21 0;
#X connect 71 0 22 0;
#X connect 72 0 23 0;
#X connect 73 0 24 0;
#X connect 74 0 49 0;
#X connect 74 0 75 0;
#X connect 75 0 51 0;
#X connect 75 0 76 0;
#X connect 76 0 53 0;
#X connect 76 0 77 0;
#X connect 77 0 55 0;
#X connect 77 0 78 0;
#X connect 78 0 57 0;
#X connect 78 0 79 0;
#X connect 79 0 59 0;
#X connect 79 0 80 0;
#X connect 80 0 61 0;
#X restore 757 129 pd additive_synth;
#X floatatom 875 104 5 0 0 0 - - -;
#X obj 924 104 bng 15 250 50 0 empty empty empty 17 7 0 10 -262144
-1 -1;
#X floatatom 992 106 5 0 0 0 - - -;
#X obj 1041 106 bng 15 250 50 0 empty empty empty 17 7 0 10 -262144
-1 -1;
#N canvas 0 23 1280 699 additive_synth 0;
#X floatatom 580 238 5 0 0 0 - - -;
#X obj 392 441 *~;
#X obj 429 443 line~;
#X obj 391 404 osc~;
#X obj 492 450 *~;
#X obj 491 406 osc~;
#X obj 599 438 *~;
#X obj 598 401 osc~;
#X obj 717 450 *~;
#X obj 720 403 osc~;
#X obj 381 591 *~;
#X obj 380 554 osc~;
#X obj 509 602 *~;
#X obj 513 557 osc~;
#X obj 636 592 *~;
#X obj 635 555 osc~;
#X obj 770 593 *~;
#X obj 769 556 osc~;
#X obj 528 441 line~;
#X obj 643 440 line~;
#X obj 768 441 line~;
#X obj 427 587 line~;
#X obj 557 588 line~;
#X obj 681 592 line~;
#X obj 810 536 line~;
#X obj 391 375 * 1;
#X obj 491 373 * 2;
#X obj 598 366 * 3;
#X obj 720 369 * 4;
#X obj 380 512 * 5;
#X obj 513 526 * 6;
#X obj 635 511 * 7;
#X obj 769 515 * 8;
#X obj 621 238 bng 15 250 50 0 empty empty empty 17 7 0 10 -262144
-1 -1;
#X obj 580 160 inlet;
#X obj 621 209 inlet;
#X floatatom 580 189 5 0 0 0 - - -;
#X obj 580 211 mtof;
#X msg 429 403 0.5 \, 0 800;
#X obj 917 148 vsl 15 128 0 0.8 0 0 empty empty empty 0 -9 0 10 -262144
-1 -1 12700 1;
#X floatatom 917 286 5 0 0 0 - - -;
#X obj 392 477 *~;
#X obj 492 480 *~;
#X obj 599 478 *~;
#X obj 716 480 *~;
#X obj 389 633 *~;
#X obj 489 636 *~;
#X obj 596 634 *~;
#X obj 713 636 *~;
#X obj 959 149 vsl 15 128 0 0.8 0 0 empty empty empty 0 -9 0 10 -262144
-1 -1 7937 1;
#X floatatom 959 287 5 0 0 0 - - -;
#X obj 1000 150 vsl 15 128 0 0.8 0 0 empty empty empty 0 -9 0 10 -262144
-1 -1 3969 1;
#X floatatom 1000 288 5 0 0 0 - - -;
#X obj 1041 151 vsl 15 128 0 0.8 0 0 empty empty empty 0 -9 0 10 -262144
-1 -1 1984 1;
#X floatatom 1041 289 5 0 0 0 - - -;
#X obj 1078 151 vsl 15 128 0 0.8 0 0 empty empty empty 0 -9 0 10 -262144
-1 -1 992 1;
#X floatatom 1079 290 5 0 0 0 - - -;
#X obj 1117 152 vsl 15 128 0 0.8 0 0 empty empty empty 0 -9 0 10 -262144
-1 -1 496 1;
#X floatatom 1117 290 5 0 0 0 - - -;
#X obj 1156 152 vsl 15 128 0 0.8 0 0 empty empty empty 0 -9 0 10 -262144
-1 -1 248 1;
#X floatatom 1156 290 5 0 0 0 - - -;
#X obj 1193 153 vsl 15 128 0 0.8 0 0 empty empty empty 0 -9 0 10 -262144
-1 -1 124 1;
#X floatatom 1193 291 5 0 0 0 - - -;
#X obj 917 82 1;
#X obj 993 45 bng 15 250 50 0 empty empty empty 17 7 0 10 -262144 -1
-1;
#X obj 917 50 inlet;
#X obj 577 714 outlet~;
#X msg 527 401 0.5 \, 0 800;
#X msg 643 400 0.5 \, 0 800;
#X msg 768 402 0.5 \, 0 800;
#X msg 428 547 0.5 \, 0 800;
#X msg 557 548 0.5 \, 0 800;
#X msg 682 551 0.5 \, 0 800;
#X msg 810 507 0.5 \, 0 800;
#X obj 959 99 / 2;
#X obj 1000 99 / 2;
#X obj 1041 99 / 2;
#X obj 1078 99 / 2;
#X obj 1117 99 / 2;
#X obj 1156 99 / 2;
#X obj 1193 99 / 2;
#X text 368 301 Additive Synth;
#X connect 0 0 25 0;
#X connect 0 0 26 0;
#X connect 0 0 27 0;
#X connect 0 0 28 0;
#X connect 0 0 29 0;
#X connect 0 0 30 0;
#X connect 0 0 31 0;
#X connect 0 0 32 0;
#X connect 1 0 41 0;
#X connect 2 0 1 1;
#X connect 3 0 1 0;
#X connect 4 0 42 0;
#X connect 5 0 4 0;
#X connect 6 0 43 0;
#X connect 7 0 6 0;
#X connect 8 0 44 0;
#X connect 9 0 8 0;
#X connect 10 0 45 0;
#X connect 11 0 10 0;
#X connect 12 0 46 0;
#X connect 13 0 12 0;
#X connect 14 0 47 0;
#X connect 15 0 14 0;
#X connect 16 0 48 0;
#X connect 17 0 16 0;
#X connect 18 0 4 1;
#X connect 19 0 6 1;
#X connect 20 0 8 1;
#X connect 21 0 10 1;
#X connect 22 0 12 1;
#X connect 23 0 14 1;
#X connect 24 0 16 1;
#X connect 25 0 3 0;
#X connect 26 0 5 0;
#X connect 27 0 7 0;
#X connect 28 0 9 0;
#X connect 29 0 11 0;
#X connect 30 0 13 0;
#X connect 31 0 15 0;
#X connect 32 0 17 0;
#X connect 33 0 38 0;
#X connect 33 0 67 0;
#X connect 33 0 68 0;
#X connect 33 0 69 0;
#X connect 33 0 70 0;
#X connect 33 0 71 0;
#X connect 33 0 72 0;
#X connect 33 0 73 0;
#X connect 34 0 36 0;
#X connect 35 0 33 0;
#X connect 36 0 37 0;
#X connect 37 0 0 0;
#X connect 38 0 2 0;
#X connect 39 0 40 0;
#X connect 40 0 41 1;
#X connect 41 0 66 0;
#X connect 42 0 66 0;
#X connect 43 0 66 0;
#X connect 44 0 66 0;
#X connect 45 0 66 0;
#X connect 46 0 66 0;
#X connect 47 0 66 0;
#X connect 48 0 66 0;
#X connect 49 0 50 0;
#X connect 50 0 42 1;
#X connect 51 0 52 0;
#X connect 52 0 43 1;
#X connect 53 0 54 0;
#X connect 54 0 44 1;
#X connect 55 0 56 0;
#X connect 56 0 45 1;
#X connect 57 0 58 0;
#X connect 58 0 46 1;
#X connect 59 0 60 0;
#X connect 60 0 47 1;
#X connect 61 0 62 0;
#X connect 62 0 48 1;
#X connect 63 0 39 0;
#X connect 63 0 74 0;
#X connect 64 0 63 0;
#X connect 65 0 63 0;
#X connect 67 0 18 0;
#X connect 68 0 19 0;
#X connect 69 0 20 0;
#X connect 70 0 21 0;
#X connect 71 0 22 0;
#X connect 72 0 23 0;
#X connect 73 0 24 0;
#X connect 74 0 49 0;
#X connect 74 0 75 0;
#X connect 75 0 51 0;
#X connect 75 0 76 0;
#X connect 76 0 53 0;
#X connect 76 0 77 0;
#X connect 77 0 55 0;
#X connect 77 0 78 0;
#X connect 78 0 57 0;
#X connect 78 0 79 0;
#X connect 79 0 59 0;
#X connect 79 0 80 0;
#X connect 80 0 61 0;
#X restore 875 129 pd additive_synth;
#N canvas 0 23 1280 699 additive_synth 0;
#X floatatom 580 238 5 0 0 0 - - -;
#X obj 392 441 *~;
#X obj 429 443 line~;
#X obj 391 404 osc~;
#X obj 492 450 *~;
#X obj 491 406 osc~;
#X obj 599 438 *~;
#X obj 598 401 osc~;
#X obj 717 450 *~;
#X obj 720 403 osc~;
#X obj 381 591 *~;
#X obj 380 554 osc~;
#X obj 509 602 *~;
#X obj 513 557 osc~;
#X obj 636 592 *~;
#X obj 635 555 osc~;
#X obj 770 593 *~;
#X obj 769 556 osc~;
#X obj 528 441 line~;
#X obj 643 440 line~;
#X obj 768 441 line~;
#X obj 427 587 line~;
#X obj 557 588 line~;
#X obj 681 592 line~;
#X obj 810 536 line~;
#X obj 391 375 * 1;
#X obj 491 373 * 2;
#X obj 598 366 * 3;
#X obj 720 369 * 4;
#X obj 380 512 * 5;
#X obj 513 526 * 6;
#X obj 635 511 * 7;
#X obj 769 515 * 8;
#X obj 621 238 bng 15 250 50 0 empty empty empty 17 7 0 10 -262144
-1 -1;
#X obj 580 160 inlet;
#X obj 621 209 inlet;
#X floatatom 580 189 5 0 0 0 - - -;
#X obj 580 211 mtof;
#X msg 429 403 0.5 \, 0 800;
#X obj 917 148 vsl 15 128 0 0.8 0 0 empty empty empty 0 -9 0 10 -262144
-1 -1 12700 1;
#X floatatom 917 286 5 0 0 0 - - -;
#X obj 392 477 *~;
#X obj 492 480 *~;
#X obj 599 478 *~;
#X obj 716 480 *~;
#X obj 389 633 *~;
#X obj 489 636 *~;
#X obj 596 634 *~;
#X obj 713 636 *~;
#X obj 959 149 vsl 15 128 0 0.8 0 0 empty empty empty 0 -9 0 10 -262144
-1 -1 7937 1;
#X floatatom 959 287 5 0 0 0 - - -;
#X obj 1000 150 vsl 15 128 0 0.8 0 0 empty empty empty 0 -9 0 10 -262144
-1 -1 3969 1;
#X floatatom 1000 288 5 0 0 0 - - -;
#X obj 1041 151 vsl 15 128 0 0.8 0 0 empty empty empty 0 -9 0 10 -262144
-1 -1 1984 1;
#X floatatom 1041 289 5 0 0 0 - - -;
#X obj 1078 151 vsl 15 128 0 0.8 0 0 empty empty empty 0 -9 0 10 -262144
-1 -1 992 1;
#X floatatom 1079 290 5 0 0 0 - - -;
#X obj 1117 152 vsl 15 128 0 0.8 0 0 empty empty empty 0 -9 0 10 -262144
-1 -1 496 1;
#X floatatom 1117 290 5 0 0 0 - - -;
#X obj 1156 152 vsl 15 128 0 0.8 0 0 empty empty empty 0 -9 0 10 -262144
-1 -1 248 1;
#X floatatom 1156 290 5 0 0 0 - - -;
#X obj 1193 153 vsl 15 128 0 0.8 0 0 empty empty empty 0 -9 0 10 -262144
-1 -1 124 1;
#X floatatom 1193 291 5 0 0 0 - - -;
#X obj 917 82 1;
#X obj 993 45 bng 15 250 50 0 empty empty empty 17 7 0 10 -262144 -1
-1;
#X obj 917 50 inlet;
#X obj 577 714 outlet~;
#X msg 527 401 0.5 \, 0 800;
#X msg 643 400 0.5 \, 0 800;
#X msg 768 402 0.5 \, 0 800;
#X msg 428 547 0.5 \, 0 800;
#X msg 557 548 0.5 \, 0 800;
#X msg 682 551 0.5 \, 0 800;
#X msg 810 507 0.5 \, 0 800;
#X obj 959 99 / 2;
#X obj 1000 99 / 2;
#X obj 1041 99 / 2;
#X obj 1078 99 / 2;
#X obj 1117 99 / 2;
#X obj 1156 99 / 2;
#X obj 1193 99 / 2;
#X text 339 287 Additive Synth;
#X connect 0 0 25 0;
#X connect 0 0 26 0;
#X connect 0 0 27 0;
#X connect 0 0 28 0;
#X connect 0 0 29 0;
#X connect 0 0 30 0;
#X connect 0 0 31 0;
#X connect 0 0 32 0;
#X connect 1 0 41 0;
#X connect 2 0 1 1;
#X connect 3 0 1 0;
#X connect 4 0 42 0;
#X connect 5 0 4 0;
#X connect 6 0 43 0;
#X connect 7 0 6 0;
#X connect 8 0 44 0;
#X connect 9 0 8 0;
#X connect 10 0 45 0;
#X connect 11 0 10 0;
#X connect 12 0 46 0;
#X connect 13 0 12 0;
#X connect 14 0 47 0;
#X connect 15 0 14 0;
#X connect 16 0 48 0;
#X connect 17 0 16 0;
#X connect 18 0 4 1;
#X connect 19 0 6 1;
#X connect 20 0 8 1;
#X connect 21 0 10 1;
#X connect 22 0 12 1;
#X connect 23 0 14 1;
#X connect 24 0 16 1;
#X connect 25 0 3 0;
#X connect 26 0 5 0;
#X connect 27 0 7 0;
#X connect 28 0 9 0;
#X connect 29 0 11 0;
#X connect 30 0 13 0;
#X connect 31 0 15 0;
#X connect 32 0 17 0;
#X connect 33 0 38 0;
#X connect 33 0 67 0;
#X connect 33 0 68 0;
#X connect 33 0 69 0;
#X connect 33 0 70 0;
#X connect 33 0 71 0;
#X connect 33 0 72 0;
#X connect 33 0 73 0;
#X connect 34 0 36 0;
#X connect 35 0 33 0;
#X connect 36 0 37 0;
#X connect 37 0 0 0;
#X connect 38 0 2 0;
#X connect 39 0 40 0;
#X connect 40 0 41 1;
#X connect 41 0 66 0;
#X connect 42 0 66 0;
#X connect 43 0 66 0;
#X connect 44 0 66 0;
#X connect 45 0 66 0;
#X connect 46 0 66 0;
#X connect 47 0 66 0;
#X connect 48 0 66 0;
#X connect 49 0 50 0;
#X connect 50 0 42 1;
#X connect 51 0 52 0;
#X connect 52 0 43 1;
#X connect 53 0 54 0;
#X connect 54 0 44 1;
#X connect 55 0 56 0;
#X connect 56 0 45 1;
#X connect 57 0 58 0;
#X connect 58 0 46 1;
#X connect 59 0 60 0;
#X connect 60 0 47 1;
#X connect 61 0 62 0;
#X connect 62 0 48 1;
#X connect 63 0 39 0;
#X connect 63 0 74 0;
#X connect 64 0 63 0;
#X connect 65 0 63 0;
#X connect 67 0 18 0;
#X connect 68 0 19 0;
#X connect 69 0 20 0;
#X connect 70 0 21 0;
#X connect 71 0 22 0;
#X connect 72 0 23 0;
#X connect 73 0 24 0;
#X connect 74 0 49 0;
#X connect 74 0 75 0;
#X connect 75 0 51 0;
#X connect 75 0 76 0;
#X connect 76 0 53 0;
#X connect 76 0 77 0;
#X connect 77 0 55 0;
#X connect 77 0 78 0;
#X connect 78 0 57 0;
#X connect 78 0 79 0;
#X connect 79 0 59 0;
#X connect 79 0 80 0;
#X connect 80 0 61 0;
#X restore 992 129 pd additive_synth;
#X obj 806 104 bng 15 250 50 0 empty empty empty 17 7 0 10 -262144
-1 -1;
#X obj 408 70 r voice3;
#X obj 526 69 r voice4;
#X obj 643 71 r voice5;
#X obj 757 69 r voice6;
#X obj 875 68 r voice7;
#X obj 992 70 r voice8;
#X text 800 -29 A synth for each voice;
#X connect 0 0 1 0;
#X connect 1 0 14 0;
#X connect 2 0 1 2;
#X connect 2 0 10 2;
#X connect 2 0 11 2;
#X connect 2 0 17 2;
#X connect 2 0 23 2;
#X connect 2 0 26 2;
#X connect 2 0 31 2;
#X connect 2 0 32 2;
#X connect 3 0 10 0;
#X connect 4 0 10 1;
#X connect 5 0 0 0;
#X connect 5 0 15 0;
#X connect 6 0 3 0;
#X connect 6 0 4 0;
#X connect 7 0 11 0;
#X connect 8 0 11 1;
#X connect 9 0 7 0;
#X connect 9 0 8 0;
#X connect 10 0 14 0;
#X connect 11 0 14 0;
#X connect 12 0 1 2;
#X connect 12 0 10 2;
#X connect 12 0 11 2;
#X connect 12 0 17 2;
#X connect 12 0 23 2;
#X connect 12 0 26 2;
#X connect 12 0 31 2;
#X connect 12 0 32 2;
#X connect 13 0 12 0;
#X connect 15 0 1 1;
#X connect 16 0 17 0;
#X connect 17 0 14 0;
#X connect 18 0 22 0;
#X connect 19 0 22 1;
#X connect 20 0 23 0;
#X connect 21 0 23 1;
#X connect 22 0 14 0;
#X connect 23 0 14 0;
#X connect 24 0 17 1;
#X connect 25 0 26 0;
#X connect 26 0 14 0;
#X connect 27 0 31 0;
#X connect 28 0 31 1;
#X connect 29 0 32 0;
#X connect 30 0 32 1;
#X connect 31 0 14 0;
#X connect 32 0 14 0;
#X connect 33 0 26 1;
#X connect 34 0 16 0;
#X connect 34 0 24 0;
#X connect 35 0 18 0;
#X connect 35 0 19 0;
#X connect 36 0 20 0;
#X connect 36 0 21 0;
#X connect 37 0 25 0;
#X connect 37 0 33 0;
#X connect 38 0 27 0;
#X connect 38 0 28 0;
#X connect 39 0 29 0;
#X connect 39 0 30 0;
#X restore 209 311 pd synths;
#X obj 317 278 bng 15 250 50 0 empty empty empty 17 7 0 10 -262144
-1 -1;
#N canvas 385 108 1280 751 reads 0;
#X obj 380 16 inlet;
#X obj 60 316 outlet;
#X obj 108 316 outlet;
#X obj 33 206 qlist;
#X msg 45 153 bang;
#X obj 45 132 del 200;
#X obj 99 206 qlist;
#X msg 111 153 bang;
#X obj 111 132 del 200;
#X obj 166 205 qlist;
#X msg 178 152 bang;
#X obj 178 131 del 200;
#X msg 33 99 read PD0;
#X msg 99 99 read PD1;
#X msg 166 98 read PD2;
#X obj 618 205 qlist;
#X msg 630 152 bang;
#X msg 618 98 read tempo_file;
#X obj 630 131 del 100;
#X text 50 335 stop bng;
#X text 107 334 start bng;
#X obj 229 206 qlist;
#X msg 241 153 bang;
#X obj 241 132 del 200;
#X obj 295 206 qlist;
#X msg 307 153 bang;
#X obj 307 132 del 200;
#X obj 362 205 qlist;
#X msg 374 152 bang;
#X obj 374 131 del 200;
#X msg 229 99 read PD3;
#X msg 295 99 read PD4;
#X msg 362 98 read PD5;
#X obj 423 206 qlist;
#X msg 435 153 bang;
#X obj 435 132 del 200;
#X obj 489 206 qlist;
#X msg 501 153 bang;
#X obj 501 132 del 200;
#X obj 556 205 qlist;
#X msg 568 152 bang;
#X obj 568 131 del 200;
#X msg 423 99 read PD6;
#X msg 489 99 read PD7;
#X msg 556 98 read PD8;
#X text 233 252 Initialize a sequencer object for every voice;
#X connect 0 0 12 0;
#X connect 0 0 13 0;
#X connect 0 0 14 0;
#X connect 0 0 30 0;
#X connect 0 0 31 0;
#X connect 0 0 32 0;
#X connect 0 0 42 0;
#X connect 0 0 43 0;
#X connect 0 0 44 0;
#X connect 0 0 17 0;
#X connect 0 0 5 0;
#X connect 0 0 8 0;
#X connect 0 0 11 0;
#X connect 0 0 23 0;
#X connect 0 0 26 0;
#X connect 0 0 29 0;
#X connect 0 0 35 0;
#X connect 0 0 38 0;
#X connect 0 0 41 0;
#X connect 0 0 18 0;
#X connect 3 1 1 0;
#X connect 4 0 3 0;
#X connect 4 0 2 0;
#X connect 5 0 4 0;
#X connect 7 0 6 0;
#X connect 8 0 7 0;
#X connect 10 0 9 0;
#X connect 11 0 10 0;
#X connect 12 0 3 0;
#X connect 13 0 6 0;
#X connect 14 0 9 0;
#X connect 16 0 15 0;
#X connect 17 0 15 0;
#X connect 18 0 16 0;
#X connect 22 0 21 0;
#X connect 23 0 22 0;
#X connect 25 0 24 0;
#X connect 26 0 25 0;
#X connect 28 0 27 0;
#X connect 29 0 28 0;
#X connect 30 0 21 0;
#X connect 31 0 24 0;
#X connect 32 0 27 0;
#X connect 34 0 33 0;
#X connect 35 0 34 0;
#X connect 37 0 36 0;
#X connect 38 0 37 0;
#X connect 40 0 39 0;
#X connect 41 0 40 0;
#X connect 42 0 33 0;
#X connect 43 0 36 0;
#X connect 44 0 39 0;
#X restore 181 156 pd reads;
#N canvas 0 25 1280 751 drums 0;
#X obj 461 477 outlet~;
#X obj 420 271 line~;
#X obj 420 27 bng 15 250 50 0 empty empty empty 17 7 0 10 -262144 -1
-1;
#X obj 348 272 line~;
#X obj 348 322 *~;
#X obj 348 297 osc~;
#X msg 420 242 0.5 \, 0 1600;
#X obj 596 271 line~;
#X obj 524 272 line~;
#X obj 524 322 *~;
#X obj 524 368 *~ 0.5;
#X obj 524 297 osc~;
#X obj 502 200 del 800;
#X msg 596 242 0.5 \, 0 200;
#X msg 502 243 400 \, 300 100;
#X obj 572 332 noise~;
#X obj 681 241 *~;
#X obj 665 206 noise~;
#X obj 716 215 line~;
#X msg 716 186 0.5 \, 0 40;
#X obj 681 287 *~ 0.3;
#X obj 577 33 r tempo;
#X obj 420 118 metro;
#X obj 538 85 / 4;
#X obj 538 33 60000;
#X obj 538 60 /;
#X obj 511 114 metro;
#X msg 446 87 stop;
#X obj 348 368 *~ 1;
#X msg 326 243 300 \, 40 100;
#X obj 561 441 vsl 15 128 0 1 0 0 empty empty empty 0 -9 0 10 -262144
-1 -1 10160 1;
#X obj 461 442 *~;
#X obj 561 418 0.8;
#X obj 561 397 loadbang;
#X obj 494 -9 inlet;
#X obj 545 -9 inlet;
#X obj 591 -11 inlet;
#X text 676 104 simple drums;
#X connect 1 0 4 1;
#X connect 2 0 22 0;
#X connect 2 0 26 0;
#X connect 2 0 24 0;
#X connect 3 0 5 0;
#X connect 4 0 28 0;
#X connect 5 0 4 0;
#X connect 6 0 1 0;
#X connect 7 0 9 1;
#X connect 8 0 11 0;
#X connect 9 0 10 0;
#X connect 10 0 31 0;
#X connect 11 0 9 0;
#X connect 12 0 14 0;
#X connect 12 0 13 0;
#X connect 13 0 7 0;
#X connect 14 0 8 0;
#X connect 15 0 9 0;
#X connect 16 0 20 0;
#X connect 17 0 16 0;
#X connect 18 0 16 1;
#X connect 19 0 18 0;
#X connect 20 0 31 0;
#X connect 21 0 25 1;
#X connect 22 0 29 0;
#X connect 22 0 6 0;
#X connect 22 0 12 0;
#X connect 23 0 26 1;
#X connect 24 0 25 0;
#X connect 25 0 23 0;
#X connect 25 0 22 1;
#X connect 26 0 19 0;
#X connect 27 0 22 0;
#X connect 27 0 26 0;
#X connect 28 0 31 0;
#X connect 29 0 3 0;
#X connect 30 0 31 1;
#X connect 31 0 0 0;
#X connect 32 0 30 0;
#X connect 33 0 32 0;
#X connect 34 0 2 0;
#X connect 35 0 27 0;
#X connect 36 0 32 0;
#X restore 272 310 pd drums;
#X text 42 108 Play and record;
#X text 338 277 Initialize instruments;
#X text 326 121 Synthtatic Sugar CMPS 112 - Final Project UCSC - Winter
2015 Hadley Black \, Evan Hughes \, Carl Eadler;
#X connect 2 0 1 0;
#X connect 3 0 1 0;
#X connect 4 0 3 0;
#X connect 5 0 6 0;
#X connect 5 0 7 0;
#X connect 5 0 10 0;
#X connect 6 0 2 0;
#X connect 7 0 1 0;
#X connect 8 0 0 1;
#X connect 8 0 0 0;
#X connect 8 0 1 1;
#X connect 8 0 1 0;
#X connect 9 0 8 0;
#X connect 9 0 11 2;
#X connect 10 0 4 0;
#X connect 10 0 11 1;
#X connect 10 1 11 0;
#X connect 11 0 0 1;
#X connect 11 0 0 0;
#X connect 11 0 1 1;
#X connect 11 0 1 0;
